<svg width="65" height="108" viewBox="0 0 65 108" fill="none" xmlns="http://www.w3.org/2000/svg">
<path d="M2.784 62V16.176H8.544L16.384 33.648L19.104 40.72H19.296L22.016 33.648L29.856 16.176H35.616V62H29.984V37.84L30.624 25.936H30.432L21.28 47.312H17.12L7.968 25.936H7.776L8.416 37.84V62H2.784Z" fill="#1A1C2B"/>
<path d="M45.328 91.024C41.7227 91.024 38.64 90.0427 36.08 88.08C33.5413 86.096 31.76 83.3333 30.736 79.792L36.272 77.744C37.68 82.8427 40.656 85.392 45.2 85.392C47.6533 85.392 49.4987 84.5813 50.736 82.96C51.9947 81.3173 52.624 78.8853 52.624 75.664V44.176H58.576V75.792C58.576 78.9707 58.0427 81.7013 56.976 83.984C55.9307 86.2667 54.416 88.016 52.432 89.232C50.4693 90.4267 48.1013 91.024 45.328 91.024Z" fill="#1A1C2B"/>
</svg>
